<svg width="29" height="26" viewBox="0 0 29 26" fill="none" xmlns="http://www.w3.org/2000/svg">
<g clip-path="url(#clip0_9_338)">
<path d="M0 23.4574C0 18.4403 0 13.424 0 8.40693C0.0167008 8.34544 0.0409929 8.28471 0.0493433 8.2217C0.215592 7.0071 1.18955 5.98607 2.38973 5.83197C2.84293 5.77352 3.3098 5.82286 3.77514 5.82286C3.80019 5.70671 3.82373 5.62625 3.83435 5.54426C3.93456 4.72137 4.04235 3.89923 4.12965 3.07482C4.30805 1.37969 5.69118 0.288061 7.38252 0.500617C8.62521 0.656997 9.87094 0.792122 11.1159 0.93332C13.5216 1.20585 15.9273 1.47382 18.3329 1.74635C20.9633 2.04392 23.5922 2.35289 26.2241 2.63908C27.9336 2.82507 29.1277 4.17631 28.9539 5.79933C28.7201 7.97195 28.4658 10.1431 28.2198 12.3149C27.9389 14.7958 27.6535 17.2751 27.3787 19.7567C27.2329 21.0768 26.6689 22.0758 25.3154 22.4531C25.0231 22.5343 24.9571 22.6596 24.9715 22.9359C25.0102 23.6434 24.7923 24.2712 24.3187 24.8056C23.6552 25.5541 22.8095 25.8562 21.8257 25.8547C18.8188 25.8487 15.8111 25.8524 12.8042 25.8524C9.47619 25.8524 6.14893 25.8502 2.82092 25.854C1.84999 25.8547 1.03469 25.5169 0.499506 24.6978C0.259622 24.3312 0.161694 23.8734 0 23.4574ZM1.42109 18.7242C1.54331 18.6415 1.63592 18.5838 1.72398 18.5193C3.12685 17.4998 4.52744 16.478 5.93182 15.4607C7.31647 14.4572 8.84004 14.5301 10.1184 15.6551C11.3072 16.7019 12.4945 17.7503 13.6833 18.7956C14.4318 19.4538 15.1719 19.5236 16.0419 19.018C18.4681 17.6068 20.8912 16.1903 23.3212 14.7859C23.5238 14.669 23.58 14.5369 23.5785 14.3167C23.5709 12.554 23.5747 10.7906 23.5739 9.0279C23.5739 7.85732 22.9272 7.21358 21.7528 7.21358C15.4923 7.21358 9.23251 7.21358 2.97198 7.21358C2.86798 7.21358 2.75412 7.18777 2.66302 7.22269C2.39733 7.32366 2.10202 7.40185 1.88871 7.57493C1.52661 7.86947 1.41046 8.30521 1.41046 8.76752C1.41046 12.0105 1.41046 15.2543 1.41046 18.4973C1.41046 18.5595 1.41577 18.621 1.42033 18.7235L1.42109 18.7242ZM23.5595 16.2988C23.4358 16.3679 23.3477 16.415 23.2619 16.4643C21.1098 17.7093 18.9585 18.955 16.8056 20.1977C16.6021 20.3154 16.3956 20.4338 16.177 20.5158C14.8971 20.9933 13.7486 20.7291 12.7344 19.8508C11.5236 18.8017 10.331 17.7305 9.12471 16.6754C8.39216 16.0346 7.62088 15.9572 6.88301 16.4916C5.09678 17.7844 3.32574 19.0977 1.55242 20.4087C1.48258 20.4604 1.41881 20.5727 1.41805 20.6577C1.40894 21.5247 1.40211 22.3923 1.41957 23.2593C1.4302 23.8127 1.84848 24.2985 2.3829 24.4071C2.57496 24.4458 2.77689 24.4458 2.97426 24.4458C9.23403 24.4473 15.4938 24.4473 21.7536 24.4465C21.8758 24.4465 21.9988 24.4435 22.121 24.4336C23.0562 24.3547 23.5762 23.7952 23.5762 22.866C23.5762 20.7921 23.5762 18.7182 23.5762 16.6442C23.5762 16.5448 23.5679 16.4446 23.5618 16.2996L23.5595 16.2988ZM5.20837 5.80388H5.57427C10.996 5.80388 16.4169 5.8054 21.8386 5.80161C22.3578 5.80161 22.852 5.8927 23.309 6.13714C24.4264 6.73457 24.9745 7.68197 24.9761 8.9406C24.9799 12.8721 24.9776 16.8036 24.9776 20.7352V21.098C25.4869 20.9007 25.8058 20.5955 25.8665 20.0876C26.1185 17.9636 26.3592 15.8388 26.6067 13.7148C26.9179 11.0381 27.2337 8.36214 27.5427 5.68546C27.6345 4.88686 27.1487 4.21579 26.3508 4.10268C25.2129 3.9425 24.0689 3.82711 22.9279 3.69427C20.4016 3.39973 17.8752 3.10367 15.348 2.8114C12.6433 2.49864 9.93774 2.19271 7.23297 1.87767C6.32277 1.7714 5.64487 2.24889 5.51734 3.15073C5.39512 4.01766 5.31389 4.88989 5.20913 5.80237L5.20837 5.80388Z" fill="black"/>
<path d="M17.6192 12.4226C17.5843 14.0578 16.2414 15.3635 14.6275 15.3301C12.9862 15.2959 11.6828 13.9447 11.7154 12.3103C11.7481 10.7062 13.1229 9.39447 14.739 9.42711C16.3363 9.45899 17.6533 10.8285 17.6192 12.4226ZM13.1259 12.3839C13.1274 13.2326 13.8258 13.9287 14.673 13.9257C15.5179 13.9234 16.2216 13.2174 16.2178 12.3778C16.214 11.5307 15.5141 10.8361 14.6669 10.8376C13.8182 10.8391 13.1244 11.5352 13.1259 12.3832V12.3839Z" fill="black"/>
</g>
<defs>
<clipPath id="clip0_9_338">
<rect width="28.9706" height="25.3792" fill="white" transform="translate(0 0.473999)"/>
</clipPath>
</defs>
</svg>
