<svg width="29" height="41" viewBox="0 0 29 41" fill="none" xmlns="http://www.w3.org/2000/svg">
<g clip-path="url(#clip0_9_348)">
<path d="M15.1131 0.0550537C15.7168 0.208237 16.3373 0.310792 16.9202 0.521095C20.0488 1.64661 22.0635 4.46492 22.0856 7.79083C22.1116 11.6165 22.1219 15.4435 22.0856 19.2705C22.0298 25.1382 15.9284 28.8289 10.7253 26.108C8.13421 24.754 6.67507 22.512 6.59977 19.5821C6.49852 15.5889 6.52837 11.5893 6.58419 7.5948C6.63612 3.83791 9.4856 0.691155 13.2113 0.139435C13.3243 0.122558 13.4346 0.0836134 13.545 0.0550537C14.0681 0.0550537 14.59 0.0550537 15.1131 0.0550537ZM19.6723 13.5417C19.6723 13.5417 19.6801 13.5417 19.684 13.5417C19.684 11.7269 19.6892 9.91073 19.6801 8.0959C19.6775 7.68048 19.6541 7.25858 19.5866 6.84966C19.1478 4.17284 16.6995 2.31516 13.8552 2.48782C11.2913 2.6423 9.04162 4.9063 9.00528 7.51951C8.94945 11.4763 8.9858 15.4331 8.9845 19.3912C8.9845 19.5613 8.9897 19.7314 9.01047 19.9001C9.35967 22.7301 11.7717 24.7176 14.7068 24.5943C17.3538 24.4839 19.5866 22.2083 19.6619 19.4587C19.7164 17.4881 19.6723 15.5149 19.6723 13.543V13.5417Z" fill="black"/>
<path d="M15.5413 33.5401V37.7578C15.688 37.7656 15.8243 37.7812 15.9619 37.7812C17.5158 37.7825 19.071 37.7773 20.6249 37.7864C20.8689 37.7877 21.1273 37.8123 21.3532 37.8941C21.8543 38.0759 22.1528 38.6263 22.0801 39.1533C22.0061 39.6934 21.5583 40.127 21.0053 40.1854C20.8754 40.1997 20.7443 40.1945 20.6132 40.1945C16.4201 40.1945 12.2271 40.1945 8.03268 40.1919C7.82627 40.1919 7.61078 40.1828 7.41475 40.1257C6.86823 39.9699 6.532 39.4688 6.56705 38.9106C6.6008 38.3731 6.99025 37.9266 7.53159 37.824C7.70944 37.7903 7.89508 37.7838 8.07682 37.7838C9.60476 37.7812 11.134 37.7825 12.6619 37.7825C12.8021 37.7825 12.9423 37.7825 13.1059 37.7825V33.5712C12.3634 33.4297 11.6273 33.322 10.9081 33.1454C7.51601 32.3107 4.80414 30.4504 2.73616 27.6464C1.21731 25.581 0.36701 23.2508 0.0749228 20.7129C0.0229962 20.2598 0.0100145 19.8003 -0.00037083 19.3433C-0.0159488 18.6254 0.47346 18.0893 1.1498 18.062C1.85211 18.0348 2.38826 18.5294 2.40513 19.2745C2.44667 21.101 2.80626 22.8497 3.63709 24.4867C5.28187 27.7295 7.84964 29.8702 11.3729 30.7789C16.6915 32.151 22.1892 29.7403 24.8011 24.9371C25.6942 23.2949 26.1681 21.5294 26.2369 19.6588C26.2421 19.5017 26.2408 19.3446 26.255 19.1888C26.3212 18.4943 26.8405 18.0322 27.5156 18.062C28.1595 18.0906 28.6644 18.5969 28.6554 19.2719C28.632 21.1569 28.2958 22.9847 27.561 24.7255C26.4069 27.4595 24.5882 29.6482 22.0983 31.2696C20.277 32.4561 18.2843 33.187 16.1255 33.4518C15.9333 33.4752 15.7438 33.5089 15.5413 33.5388V33.5401Z" fill="black"/>
</g>
<defs>
<clipPath id="clip0_9_348">
<rect width="28.6557" height="40.1393" fill="white" transform="translate(0 0.0550537)"/>
</clipPath>
</defs>
</svg>
