<svg width="31" height="32" viewBox="0 0 31 32" fill="none" xmlns="http://www.w3.org/2000/svg">
<path d="M27.5015 9.78108L26.8642 8.67678C26.383 7.84081 26.1418 7.42282 25.7315 7.2564C25.3226 7.08869 24.8594 7.22157 23.9319 7.48346L22.358 7.92724C21.7658 8.06399 21.1453 7.98659 20.6061 7.70793L20.1713 7.45766C19.7081 7.16083 19.3519 6.72373 19.1547 6.21015L18.7238 4.92266C18.44 4.07121 18.2981 3.64549 17.9614 3.40295C17.6247 3.15784 17.1758 3.15784 16.2804 3.15784H14.842C13.9467 3.15784 13.499 3.15784 13.161 3.40295C12.8243 3.64549 12.6837 4.07121 12.3999 4.92266L11.969 6.21015C11.7715 6.72391 11.4148 7.16104 10.9511 7.45766L10.5164 7.70922C9.97713 7.98659 9.35532 8.06399 8.76446 7.92853L7.19057 7.48346C6.26301 7.22157 5.79987 7.08998 5.39092 7.2564C4.98067 7.42282 4.73943 7.84081 4.25823 8.67549L3.62223 9.78108C3.1707 10.5654 2.94494 10.9563 2.9888 11.373C3.03266 11.791 3.33454 12.1264 3.93829 12.7986L5.26836 14.286C5.59346 14.6976 5.82438 15.4148 5.82438 16.0599C5.82438 16.7049 5.59346 17.4222 5.26965 17.8337L3.93829 19.3199C3.33454 19.992 3.03266 20.3287 2.9888 20.7454C2.94494 21.1621 3.16941 21.5543 3.62094 22.3374L4.25823 23.443C4.73943 24.2776 4.98067 24.6956 5.39092 24.862C5.80116 25.0285 6.26301 24.8982 7.19057 24.635L8.76446 24.1912C9.35647 24.0557 9.97729 24.1334 10.5177 24.4105L10.9511 24.6608C11.4156 24.9575 11.7716 25.3961 11.9677 25.9096L12.3986 27.1958C12.6824 28.0472 12.8243 28.473 13.161 28.7181C13.499 28.9606 13.9467 28.9606 14.842 28.9606H16.2804C17.1758 28.9606 17.6247 28.9606 17.9614 28.7168C18.2981 28.473 18.44 28.0472 18.7225 27.1958L19.1547 25.9096C19.3508 25.3949 19.7069 24.9575 20.1713 24.6608L20.6048 24.4105C21.1466 24.1332 21.7658 24.0545 22.3593 24.1912L23.9332 24.635C24.8594 24.8982 25.3226 25.0298 25.7315 24.8633C26.1418 24.6956 26.383 24.2776 26.8642 23.443L27.5002 22.3374C27.9517 21.5543 28.1775 21.1634 28.1336 20.7454C28.0898 20.3274 27.7879 19.992 27.1841 19.3199L25.8541 17.8337C25.529 17.4209 25.2981 16.7049 25.2981 16.0599C25.2981 15.4148 25.529 14.6976 25.8528 14.286L27.1841 12.7986C27.7879 12.1277 28.0898 11.791 28.1336 11.373C28.1775 10.955 27.953 10.5654 27.5015 9.78108Z" stroke="black" stroke-width="1.93511" stroke-linecap="round"/>
<path d="M20.022 16.0494C20.022 17.247 19.5463 18.3954 18.6995 19.2422C17.8527 20.089 16.7042 20.5647 15.5067 20.5647C14.3092 20.5647 13.1607 20.089 12.3139 19.2422C11.4672 18.3954 10.9915 17.247 10.9915 16.0494C10.9915 14.8519 11.4672 13.7034 12.3139 12.8567C13.1607 12.0099 14.3092 11.5342 15.5067 11.5342C16.7042 11.5342 17.8527 12.0099 18.6995 12.8567C19.5463 13.7034 20.022 14.8519 20.022 16.0494Z" stroke="black" stroke-width="1.93511"/>
</svg>
