<svg width="22" height="23" viewBox="0 0 22 23" fill="none" xmlns="http://www.w3.org/2000/svg">
<g clip-path="url(#clip0_9_290)">
<path d="M21.6454 14.9364C21.6431 15.5472 20.3977 15.7187 20.2924 16.0871C20.1039 16.7433 20.4616 17.144 19.8616 20.3109C19.5124 22.1524 15.6625 20.9547 14.6825 21.9239C14.4848 22.1193 14.3364 22.4385 14.2256 22.8339H5.23503V21.3978C4.33736 17.3894 2.03819 15.1987 1.04744 11.8703C0.758987 10.9019 0.581299 9.83729 0.581299 8.60348C0.581299 4.41358 3.98199 0.825201 9.73185 0.526747C10.688 0.477517 11.5764 0.50444 12.3979 0.609053C12.951 0.677512 13.4733 0.782125 13.9648 0.920584C17.977 2.04902 19.9731 5.45894 19.9962 11.0403C20.0024 12.4272 21.6485 14.2187 21.6454 14.9364Z" fill="black"/>
</g>
<defs>
<clipPath id="clip0_9_290">
<rect width="21.641" height="22.331" fill="white" transform="translate(0.00463867 0.502808)"/>
</clipPath>
</defs>
</svg>
